<svg xmlns="http://www.w3.org/2000/svg" viewBox="0 0 500 500"><defs><style>.cls-1{fill:#fff;}.cls-2{fill:#002e4f;}.cls-3{fill:#00a4e2;}.cls-4{fill:#e1f3f6;}.cls-5{fill:#008dc4;}.cls-6{fill:#00afe2;}.cls-7{fill:#006091;}.cls-8{fill:#0076ad;}.cls-9{fill:#00d2fd;}.cls-10{fill:#00396a;}.cls-11,.cls-17,.cls-18{fill:none;stroke-miterlimit:10;}.cls-11{stroke:#20c6f0;stroke-linecap:round;stroke-width:7.65px;}.cls-12{fill:#0086cf;}.cls-13{fill:#0089e0;}.cls-14{fill:#cde5e8;}.cls-15{fill:#f6ee9e;}.cls-16{fill:#f8fdff;}.cls-17,.cls-18{stroke:#dddd67;}.cls-17{stroke-width:0.87px;}.cls-18{stroke-width:0.75px;}.cls-19{fill:#009ee7;}</style></defs><title>404</title><g id="BACKGROUND"><rect class="cls-1" width="500" height="500"/></g><g id="OBJECTS"><path class="cls-2" d="M374.11,352.47c-3.42,4.44-7.44,7.74-6.56,9.24,0,0,1.82,1.33,6.85,1.33,8.62,0,17.1-.66,15.7-1.53-1.92-1.21-7.51-1.65-12.84-3.5-1.32-.45,2.89-3,1.74-3.43A25.43,25.43,0,0,1,374.11,352.47Z"/><path class="cls-2" d="M463,361.45s1.13,1.59,5.48,1.59c7.45,0,15.22-1,14-1.77-1.67-1-14.73-3.77-14.73-3.77l-2.93-3.64-5,2.75Z"/><path class="cls-3" d="M439.33,251.58a40.3,40.3,0,0,1-9.73-1.16,5.24,5.24,0,0,1,2.74-10.11c.18.05,12,3.07,18.83-2.83,4.59-3.95,6.34-11.38,5.19-22.1L456,212l10.59-6a5.23,5.23,0,0,1,5.16,9.11l-4.68,2.65c.74,12.63-2.33,21.95-9.14,27.76C452.18,250.37,445,251.58,439.33,251.58Z"/><path class="cls-4" d="M457.44,222.53c-.19,7.61-2.22,13.12-6.05,16.41-7.54,6.47-20.45,3.18-20.67,3.12a5.75,5.75,0,0,0-3,11.09,25.27,25.27,0,0,0,10.68,2.11c22.27-.79,35.71-20,36-31.21Z"/><path class="cls-5" d="M426.82,195.89c-2-.9-4-1.87-5.89-2.88-18.46,10.51-42,24-42.5,24.44,0,0,11.72,18.66,12.47,19.41.48.48,29.54-20.37,50.44-35.47C436.52,199.52,431.55,198,426.82,195.89Z"/><path class="cls-6" d="M427.12,195.35C432,197.48,437,199,441.94,201c11.51-8.32,20.41-14.79,20.41-14.79l-19.67-5.53s-9.47,5.37-21.13,12C423.38,193.61,425.23,194.52,427.12,195.35Z"/><polygon class="cls-7" points="393.21 170.85 404.79 202.21 427.43 210.52 398.75 158.13 393.21 170.85"/><polygon class="cls-7" points="428.66 218.22 411.89 218.22 426.82 244.31 449.58 253.9 428.66 218.22"/><path class="cls-8" d="M449.58,253.9l-13.35-22.78-57.14,33.5-11.23-19.17,7.05-113.95,25.68-15,46.21,78.83,15.55-9.11,12.93,22.06-15.55,9.11,13.36,22.78Zm-51.83-88.41-1.44.85-3.93,60.85,30.92-18.13Z"/><polygon class="cls-5" points="348.87 240.24 367.86 245.45 379.09 264.62 359.02 259.53 348.87 240.24"/><polygon class="cls-6" points="348.87 240.24 367.86 245.45 374.91 131.5 357.49 127.33 348.87 240.24"/><polygon class="cls-9" points="357.49 127.33 374.91 131.5 400.59 116.45 382.94 111.32 357.49 127.33"/><path class="cls-2" d="M395.7,285.64s2.79,30.11,2.79,40.66c0,0-21.92,17.09-27.29,26,2.3,1.75,6.86,4.08,9.85,4a212.87,212.87,0,0,1,30.68-23.94s6.93-20.09,9.09-37.1Z"/><path class="cls-4" d="M411.33,287.06a29.37,29.37,0,0,0,14.22-3.12c-1.42-6,1.62-23.75,5.43-33.24,0,0,3-6.6.9-8.62-7.8-7.51-14.44-6.89-16.5-7-7.16,6-20.49,23.87-19.95,47.44C399.11,286.42,406.58,287,411.33,287.06Z"/><path class="cls-10" d="M459.69,357.43A13.41,13.41,0,0,0,467,353c-8.47-13.73-39.51-64.17-41.2-68.12l-.12-.33a30.08,30.08,0,0,1-15.27,3.12c-4.59-.18-11.24-.82-15-4.22,0,.24,0,.48,0,.73.65,13.16,44.32,57.06,61.5,73.84A21.2,21.2,0,0,0,459.69,357.43Z"/><path class="cls-3" d="M369.54,273.41a10.72,10.72,0,0,1-3.49-.55c-2.31-.77-5.36-2.71-6.81-7.58a5.24,5.24,0,0,1,10-3,4.48,4.48,0,0,0,.25.65c.56,0,2.63-.16,7.68-3.12,4.51-2.65,9.84-6.6,15-10.41,8.71-6.45,16.94-12.54,23.74-14.69a5.23,5.23,0,0,1,3.16,10c-5.13,1.63-13,7.47-20.68,13.12C387.25,266.11,377.38,273.41,369.54,273.41Z"/><path class="cls-3" d="M379.33,269.5c-.64-3.09-1.31-6.49-3.26-9-4.22,2.33-6,2.49-6.54,2.47a4.48,4.48,0,0,1-.25-.65,5.24,5.24,0,0,0-10,3c1.45,4.87,4.5,6.81,6.81,7.58a10.72,10.72,0,0,0,3.49.55c3,0,6.39-1.1,10-2.93Z"/><path class="cls-4" d="M422.52,238.14a5.24,5.24,0,0,0-6.57-3.41c-6.8,2.15-15,8.24-23.74,14.69-5.16,3.81-10.49,7.76-15,10.41l-.6.34c2,2.59,5.35,15.34,5.41,15.63,5.55-2.9,32.17-23.17,38-29.29C422,244.41,423.39,240.9,422.52,238.14Z"/><path class="cls-11" d="M355.64,259.53"/><path class="cls-3" d="M362.14,269.18a1.51,1.51,0,0,1-.9-.29c-4.1-2.93-6.25-8.58-6.34-8.82a1.54,1.54,0,0,1,2.89-1.08h0c0,.05,1.91,5,5.24,7.4a1.54,1.54,0,0,1,.36,2.14A1.51,1.51,0,0,1,362.14,269.18Z"/><path class="cls-3" d="M362.14,265.43a1.56,1.56,0,0,1-1.26-.65c-2-2.79-3.54-9.4-3.71-10.15a1.54,1.54,0,0,1,3-.69c.43,1.86,1.86,7.12,3.22,9.06a1.53,1.53,0,0,1-.36,2.14A1.48,1.48,0,0,1,362.14,265.43Z"/><path class="cls-3" d="M364.26,264.56a1.52,1.52,0,0,1-1.42-1c-1.41-3.45-2-10.7-2-11a1.54,1.54,0,0,1,1.42-1.65,1.52,1.52,0,0,1,1.65,1.42c.15,2,.75,7.59,1.77,10.08a1.54,1.54,0,0,1-.85,2A1.66,1.66,0,0,1,364.26,264.56Z"/><path class="cls-3" d="M366.57,263.82a1.54,1.54,0,0,1-1.49-1.16,18.23,18.23,0,0,1-.05-7.75,1.55,1.55,0,0,1,1.86-1.15,1.54,1.54,0,0,1,1.14,1.85,15.31,15.31,0,0,0,0,6.29,1.53,1.53,0,0,1-1.1,1.87A1.31,1.31,0,0,1,366.57,263.82Z"/><path class="cls-3" d="M428.47,246.51a4.92,4.92,0,0,1-4.45-7,29.59,29.59,0,0,1,3.66-5.5,4.93,4.93,0,1,1,7.53,6.35h0a19.51,19.51,0,0,0-2.28,3.36A4.92,4.92,0,0,1,428.47,246.51Z"/><path class="cls-12" d="M429.18,244A24.3,24.3,0,0,0,431,245.8a4.86,4.86,0,0,0,1.92-2.11,19.51,19.51,0,0,1,2.28-3.36,4.93,4.93,0,1,0-7.53-6.35c-.1.12-.5.6-1,1.29C426.7,238.38,427,241.6,429.18,244Z"/><path class="cls-3" d="M445.36,238.54a9.32,9.32,0,0,1-12.16,5.06h0a9.31,9.31,0,0,1-5.06-12.16l2.46-6a9.31,9.31,0,0,1,12.16-5.06h0a9.3,9.3,0,0,1,5.06,12.16Z"/><path class="cls-10" d="M429.18,230.74c-.76,3.2-5.36,2.18-7.08.5-2.38-2.3-3.8-8.81,1.47-8.46-3.8-5.73,9.08-11.94,10.43-5.32,1-1.71,2-3.25,4.28-3.39,1.61-.1,4.43,1.15,4.2,3.12a6.67,6.67,0,0,1,8.25.17c.76.61,2.13,2,1.44,3-.37.54-2.31.71-3,.91,1.12-.51,5.71.52,4.8,2.42-.42.89-2.66.09-3.32-.1a1.33,1.33,0,0,0,0,.2c2.45,1.35,3.46,2.71,3.17,5.76-.14,1.4-.8,4-2.47,4.25a1.53,1.53,0,0,1-1.83-1.33c2.05,2.05-.85,7.52-3.44,4.82-1-1.06-.52-2.83.44-3.75-1.53-.88-4.85-5.53-2.49-6.77-1.1,0-6.21-1.71-4.58-3.18.43,1.71-1.69,3.91-3.36,3,1,2.27-2,4-3.92,4.05,1.16,1.45-2.41,3.18-3.49,1.07Z"/><path class="cls-13" d="M254.17,212.15s-3-11.44,11.84-14.16l-1.13,13.75Z"/><path class="cls-14" d="M194.74,241.05a21,21,0,0,1-9.05-2c-13.47-6.37-15-25.5-15-26.31a5.23,5.23,0,0,1,10.44-.75c.29,3.85,2.49,14.51,9.08,17.6,5.44,2.55,13.88,0,24.4-7.52a5.24,5.24,0,1,1,6.06,8.54C210.89,237.57,202.22,241.05,194.74,241.05Z"/><path class="cls-6" d="M222.6,250.87c1.46-3.82,2.8-7.7,4.38-11.47a30.61,30.61,0,0,1-3.22-.43,26.18,26.18,0,0,1-12.89-6.2,31.23,31.23,0,0,1-8.17-12,51.79,51.79,0,0,1-3.34-16.54,87.7,87.7,0,0,1,7.33-38.39,51.92,51.92,0,0,1,9.19-14,31.29,31.29,0,0,1,12-8.16,27.66,27.66,0,0,1,24.92,3.51c1.49-3,3.08-5.87,4.6-8.77,1.79-3.43,3.46-6.92,5-10.44.69-1.51,1.28-3.06,1.89-4.6a55.81,55.81,0,0,0-17.3-6.24,53.4,53.4,0,0,0-25.58,1,57.31,57.31,0,0,0-21.6,12,72.54,72.54,0,0,0-16.3,21.1,107,107,0,0,0-11.13,58.26,72.46,72.46,0,0,0,7.37,25.62,57.43,57.43,0,0,0,15.66,19.11,52.9,52.9,0,0,0,21.57,10C219,259.74,220.89,255.35,222.6,250.87Z"/><path class="cls-7" d="M293.5,172.17a72.73,72.73,0,0,0-7.38-25.63,57.49,57.49,0,0,0-15.66-19.1,48.31,48.31,0,0,0-5.57-3.79c-.61,1.54-1.2,3.09-1.89,4.59-1.62,3.51-3.25,7-5.05,10.44-1.54,2.92-3.15,5.85-4.64,8.83.53.41,1.05.83,1.55,1.28a32.32,32.32,0,0,1,8.26,12,50.39,50.39,0,0,1,3.48,16.45,88,88,0,0,1-7.34,38.4A50.24,50.24,0,0,1,250,229.78a32.13,32.13,0,0,1-12.12,8.14,25.08,25.08,0,0,1-10.22,1.52c-1.74,4.13-3.21,8.39-4.79,12.57s-3.34,8.2-5.16,12.24l1.23.25a53.28,53.28,0,0,0,25.58-1,57.3,57.3,0,0,0,21.6-12,72.89,72.89,0,0,0,16.3-21.1,107,107,0,0,0,11.13-58.26Z"/><path class="cls-8" d="M234.88,269.93a53.38,53.38,0,0,1-23.41-10.34,57.15,57.15,0,0,1-15.66-19.1,72.68,72.68,0,0,1-7.38-25.62,107,107,0,0,1,11.13-58.26,72.76,72.76,0,0,1,16.3-21.11,57.5,57.5,0,0,1,21.6-12,56.84,56.84,0,0,1,49,9.36A57.3,57.3,0,0,1,302.12,152a72.66,72.66,0,0,1,7.37,25.63,107,107,0,0,1-11.13,58.25A72.59,72.59,0,0,1,282.06,257a57.36,57.36,0,0,1-21.6,12A53.28,53.28,0,0,1,234.88,269.93Zm4.88-25.52a25.91,25.91,0,0,0,14.07-1,32.21,32.21,0,0,0,12.11-8.14,50.31,50.31,0,0,0,9.32-14.12,87.74,87.74,0,0,0,7.33-38.39,50.59,50.59,0,0,0-3.47-16.45,32.55,32.55,0,0,0-8.26-12,27.52,27.52,0,0,0-27-5.15,31.32,31.32,0,0,0-12,8.16,51.88,51.88,0,0,0-9.18,14,81.09,81.09,0,0,0-5.84,18.83,82.31,82.31,0,0,0-1.5,19.56,52.06,52.06,0,0,0,3.35,16.54,31.4,31.4,0,0,0,8.16,12A26.25,26.25,0,0,0,239.76,244.41Z"/><path class="cls-10" d="M327.23,193.06l.4,19.25s-5.5,4.92-10.42,0L319,190.64Z"/><path class="cls-2" d="M304.56,346.58c-.31-.25-2.46-1.25-2.75-1.5a25.54,25.54,0,0,1-3.35,4.11,6.93,6.93,0,0,1,2.52,6.55,28.74,28.74,0,0,1-3.33,2.53c-3,1.48-8.52,3.52-8.52,3.52L303,362.88l10.31-10.56A65.89,65.89,0,0,1,304.56,346.58Z"/><path class="cls-2" d="M250.08,347.33c-2.22-.39-5,1.31-6.82,0a46.58,46.58,0,0,0-.33,6l-20.58,8.48h26.28c.23-2.79-.27-5.48.11-8.08C248.93,352.38,249.83,348.62,250.08,347.33Z"/><path class="cls-14" d="M274,254l-23.25,44.17s9.42,8,18.69,10.63L286.9,256.7Z"/><path class="cls-2" d="M299.48,350.3a32.74,32.74,0,0,0,3.7-4.86c-6-5.15-9-10.46-17.13-19.6-3.38-3.79,5.57-25.45,7.75-29.08,3.91-6.53,4.51-11.26,7.57-22.44l-22.71,8.48c-5.4,19.36-11.7,38.73-5.39,48,6.67,9.77,18.51,17.63,24.22,21.56C297.71,352.47,299.3,350.15,299.48,350.3Z"/><path class="cls-3" d="M261.25,209.88a1.48,1.48,0,0,1-.89-.29,1.55,1.55,0,0,1-.36-2.15,13.28,13.28,0,0,0,2.24-4.66,1.54,1.54,0,0,1,3,.53,15.9,15.9,0,0,1-2.76,5.93A1.56,1.56,0,0,1,261.25,209.88Z"/><path class="cls-15" d="M299.75,279c6.76-18.56,12.53-47.67,14.69-59.3a28.8,28.8,0,0,0-3.33-1.14c-2-.55-4.41-1.2-6.46-.56a12.16,12.16,0,0,0-2.89,1.43,33.72,33.72,0,0,0-1.19,4.65s-14.51,27.75-24,46.68A94.35,94.35,0,0,1,299.75,279Z"/><path class="cls-10" d="M276.33,271.33h0c-.83,1.68-1.63,3.28-2.37,4.79h0c-1.87,3.29-3.87,6.34-5.81,9.27-18.68,28.17-25.74,50.62-27,61.24,1.78,1.39,8.53,2.18,10.77,2.57,3.45-17.61,12.42-28.85,28.49-42.13,5.37-4.45,9.39-10.1,12.93-14.79,2.11-2.79,4.2-7.27,6.2-12.7A94.11,94.11,0,0,0,276.33,271.33Z"/><path class="cls-3" d="M258.2,279.07a5.23,5.23,0,0,1-1.72-10.18c6.35-2.2,16.09-10.88,22.66-20.19a355.83,355.83,0,0,1,23.08-29.82,5.23,5.23,0,1,1,7.79,7h0a352.26,352.26,0,0,0-22.31,28.86c-6.48,9.19-17.95,20.64-27.79,24A5.12,5.12,0,0,1,258.2,279.07Z"/><path class="cls-3" d="M310.77,221.44l-.37,0a4.92,4.92,0,0,1-4.55-5.27,30,30,0,0,1,1.43-6.45,4.93,4.93,0,0,1,9.32,3.21,19.35,19.35,0,0,0-.92,4A4.93,4.93,0,0,1,310.77,221.44Z"/><path class="cls-12" d="M312.21,216.24A22.6,22.6,0,0,0,315,219a5,5,0,0,0,.64-2.08,19.35,19.35,0,0,1,.92-4,4.92,4.92,0,0,0-8.7-4.41C308.35,211.28,310.62,214.42,312.21,216.24Z"/><path class="cls-3" d="M324.9,205.57a9.31,9.31,0,0,1-9.52,9.11h0a9.31,9.31,0,0,1-9.1-9.52l.15-6.47a9.3,9.3,0,0,1,9.52-9.1h0a9.31,9.31,0,0,1,9.1,9.52Z"/><path class="cls-3" d="M250.81,277.63a19.29,19.29,0,0,1-7.36-1.74,1.54,1.54,0,0,1,1.19-2.84c4.05,1.71,7.28,1.95,9.33.71a1.54,1.54,0,1,1,1.6,2.63A9,9,0,0,1,250.81,277.63Z"/><path class="cls-3" d="M252.65,279.87a26.7,26.7,0,0,1-6.65-1l-.7-.17a1.54,1.54,0,0,1,.72-3l.7.17c3.74.9,6.2,1.5,11.66.09a1.54,1.54,0,1,1,.77,3A25.76,25.76,0,0,1,252.65,279.87Z"/><path class="cls-3" d="M250.7,274.6a13.22,13.22,0,0,1-8.31-3.13,1.54,1.54,0,0,1,2.08-2.27,9.68,9.68,0,0,0,8.45,2,1.54,1.54,0,1,1,.77,3A11.93,11.93,0,0,1,250.7,274.6Z"/><path class="cls-3" d="M253.93,272.94h-.18a9.92,9.92,0,0,1-7.47-4.55,1.54,1.54,0,0,1,2.7-1.49,6.84,6.84,0,0,0,5.12,3,1.54,1.54,0,0,1-.17,3.07Z"/><path class="cls-3" d="M272.33,212.1l-.26,0c-2.55-.42-9.52-1.52-11.14-1.52a1.54,1.54,0,0,1,0-3.08c2.17,0,10.68,1.4,11.65,1.56a1.54,1.54,0,0,1-.25,3.06Z"/><path class="cls-3" d="M271.34,215.33a1.48,1.48,0,0,1-.41-.05c-.07,0-7.39-2-10.8-2.21a1.54,1.54,0,1,1,.18-3.07c3.73.21,11.12,2.22,11.44,2.31a1.54,1.54,0,0,1-.41,3Z"/><path class="cls-3" d="M270.6,218.72a1.84,1.84,0,0,1-.47-.07c-6.94-2.24-8.65-2.38-9.56-2.45a7.85,7.85,0,0,1-1.29-.2,1.54,1.54,0,0,1,.79-3,3.74,3.74,0,0,0,.74.11c1.12.09,3,.24,10.26,2.58a1.54,1.54,0,0,1-.47,3Z"/><path class="cls-3" d="M267.55,221.18h-.11c-6.94-.5-7.23-4.27-7.24-4.7l3.08-.07a.82.82,0,0,0,0-.1s.32,1.51,4.39,1.8a1.54,1.54,0,0,1-.11,3.07Z"/><path class="cls-3" d="M261.74,219.34a8.84,8.84,0,0,0-3.42-.62c-1.75,0-4.13-3-4.13-6.06,0,0-.85-9.09,8.74-5Z"/><path class="cls-14" d="M292,246.36,278.51,312.6s20.83,5,33.61-2.34l3.23-92S301.05,213.22,292,246.36Z"/><path class="cls-4" d="M295.08,282.8l12.88-.69s.31,19.71-7.39,18.94C300.57,301.05,290,303.35,295.08,282.8Z"/><path class="cls-4" d="M311.26,216.65a7.7,7.7,0,0,0-10.87.58c-.4.45-9.81,11-23.26,30-.88,1.25-1.85,2.53-2.88,3.79l-1.37,1.68,1.49,1.57c1.59,1.68,3.26,3.31,4.87,4.89l2.61,2.58,1.9,1.91,1.73-2.06c1.54-1.85,3-3.69,4.23-5.48a346.51,346.51,0,0,1,22.14-28.63A7.72,7.72,0,0,0,311.26,216.65Z"/><rect class="cls-16" x="276.19" y="246.69" width="7.78" height="18.21" transform="translate(-97.39 293.18) rotate(-48.06)"/><path class="cls-10" d="M296.93,209.27l11.84,4.64s5-24.49,1.36-28.16C310.13,185.75,296.93,184.5,296.93,209.27Z"/><path class="cls-10" d="M310.81,190c.42.63,9.61,6.75,16.82,5.06,0,0-1.23-10.83-18.07-9.27Z"/><path class="cls-17" d="M317.9,201.56a5.15,5.15,0,1,1-5.14-5.15A5.14,5.14,0,0,1,317.9,201.56Z"/><path class="cls-18" d="M329.53,202.57a4.48,4.48,0,1,1-4.48-4.48A4.47,4.47,0,0,1,329.53,202.57Z"/><path class="cls-17" d="M317.9,201.56s1.71-.67,2.73.35"/><path class="cls-12" d="M168.14,210.57h-.36a4.93,4.93,0,0,1-4.56-5.27,30,30,0,0,1,1.43-6.45,4.93,4.93,0,0,1,9.32,3.21,19.4,19.4,0,0,0-.92,3.95A4.92,4.92,0,0,1,168.14,210.57Z"/><path class="cls-2" d="M165.21,347.3a40.48,40.48,0,0,0,15.4,3.77c5.32-9.47,21.35-35.11,6.77-56.15l-20.63-11.08S187.38,305.35,165.21,347.3Z"/><path class="cls-2" d="M175.89,355.68s1.9-3.86,3.39-6.46c-1.11-.14-6.11-.34-8.16-1.13-1.93,3.94-6.12,9.7-9.09,13.65h27.72Z"/><path class="cls-10" d="M210.17,296.15c-3.45-6.69-28.48-26.83-30.75-38.4-.2-1-.37-2.08-.52-3.16-4,2.13-9.24,2.71-13.37,2.92-4.69.24-7.5.53-12-1.68.38,7.18-.79,14.11,3.4,21.39,8.31,14.43,35.94,26.79,39,31.56,6.08,9.4,8.18,29.83,10.25,42.29,3.25,0,11-.14,14.13-1.27C219.23,343.41,221,317.11,210.17,296.15Z"/><path class="cls-2" d="M218.8,354.56s-.9-3.64-1.17-5.34c-3.17,1.11-5,0-8.28,0,.5,3.09.13,8.87.42,12.26H236Z"/><path class="cls-14" d="M165.72,261.29c4-.19,12.41-1.3,15.78-4.67-.69-5.49-3.14-14.33-2.28-21.44,2.93-24.12-8.84-31.34-8.84-31.34s-5.42-3.79-9.82.73c-6.62,6.83-13.08,26.12-12.43,54.64C152.69,261.56,160.92,261.51,165.72,261.29Z"/><path class="cls-3" d="M226.1,268.9a4.76,4.76,0,0,1-1.18-.14c-19-4.4-35-15.77-46.47-32.87a88,88,0,0,1-11.64-24.8A5.24,5.24,0,0,1,177,208.52a78.93,78.93,0,0,0,10.39,21.85c10.05,14.89,23.48,24.38,39.93,28.2a5.23,5.23,0,0,1-1.18,10.33Z"/><path class="cls-4" d="M214.57,253.17c-10.45-4.95-19.35-12.79-26.45-23.32a79,79,0,0,1-10.27-21.55,6.14,6.14,0,0,0-6-4.65,5.9,5.9,0,0,0-1.51.19,6.16,6.16,0,0,0-4.47,7.47l0,.12a87.84,87.84,0,0,0,11.74,27.43c9.21,13.8,21.72,24.13,36.15,29.87a1,1,0,0,0,.34.06.87.87,0,0,0,.52-.16.9.9,0,0,0,.41-.76V254A.94.94,0,0,0,214.57,253.17Z"/><path class="cls-3" d="M230,269.27a27,27,0,0,1-5.34-.56,1.54,1.54,0,1,1,.61-3c4.58.92,8.4.58,11.36-1a1.54,1.54,0,1,1,1.45,2.71A16.93,16.93,0,0,1,230,269.27Z"/><path class="cls-3" d="M230.21,265.83a16,16,0,0,1-2.26-.16,1.54,1.54,0,0,1,.45-3.05,16.91,16.91,0,0,0,9.53-1.86,1.54,1.54,0,0,1,1.53,2.67A20.32,20.32,0,0,1,230.21,265.83Z"/><path class="cls-3" d="M228.84,262.8l-.73,0a1.54,1.54,0,1,1,.19-3.07,6.92,6.92,0,0,0,5.57-2,1.54,1.54,0,0,1,2.39,1.94A9.79,9.79,0,0,1,228.84,262.8Z"/><path class="cls-3" d="M223.52,260.2a1.54,1.54,0,0,1,0-3.08,6.47,6.47,0,0,0,4.92-2.57A1.54,1.54,0,1,1,231,256.3,9.61,9.61,0,0,1,223.52,260.2Z"/><path class="cls-3" d="M218.49,225.45a1.55,1.55,0,0,1-1.26-.64,15.84,15.84,0,0,1-2.77-5.93,1.54,1.54,0,1,1,3-.52,13.21,13.21,0,0,0,2.23,4.66,1.53,1.53,0,0,1-.35,2.14A1.5,1.5,0,0,1,218.49,225.45Z"/><path class="cls-3" d="M218.81,226.13a1.51,1.51,0,0,1-.3,0,74.18,74.18,0,0,0-10.11-.66,1.54,1.54,0,1,1,0-3.07,75.53,75.53,0,0,1,10.69.7,1.54,1.54,0,0,1-.28,3Z"/><path class="cls-3" d="M207.55,229.34a1.54,1.54,0,0,1-.19-3.07c1-.12,9.63-1.17,12.43-.68a1.54,1.54,0,0,1,1.24,1.79,1.52,1.52,0,0,1-1.78,1.24c-1.77-.31-8,.27-11.51.71Z"/><path class="cls-3" d="M209.55,232.82a1.54,1.54,0,0,1-.29-3,43.88,43.88,0,0,0,6.53-1.62c.85-.27,1.9-.61,3.47-1.06a1.54,1.54,0,1,1,.86,2.95c-1.53.45-2.51.76-3.38,1a46.1,46.1,0,0,1-6.89,1.71A1.53,1.53,0,0,1,209.55,232.82Z"/><path class="cls-3" d="M212.87,235.27a1.54,1.54,0,0,1-.26-3.06c5-.85,6-2.71,6-2.73a1.54,1.54,0,0,1,2.92,1c-.2.6-1.53,3.63-8.39,4.81Z"/><path class="cls-3" d="M218.8,233.41l-1.17-12.54a6,6,0,0,1,5.49,6.16C223.12,229,222.56,231.11,218.8,233.41Z"/><path class="cls-3" d="M184.16,192.54a9.84,9.84,0,0,1-7,12h0a9.84,9.84,0,0,1-12-7L163.38,191a9.85,9.85,0,0,1,7-12h0a9.84,9.84,0,0,1,12,7Z"/><path class="cls-10" d="M183.23,189a13,13,0,0,1-3.43,5.56A14.65,14.65,0,0,1,165,196.89l.18.68a9.84,9.84,0,0,0,19-5Z"/><path class="cls-10" d="M165.1,197.2c-3.7-2.37-7.69-11.39-1.85-13.36,3.61-1.22,2.16,9.91,2.16,13.06Z"/><path class="cls-10" d="M162.13,184.58c-4.46-3.24,1.07-12.39,12.11-12.39,6.82,0,6.77,5.22,2,8.05-3.91,2.34-10,1-12.92,5Z"/><path class="cls-10" d="M183.23,191.06a91,91,0,0,1-5.84-9.88c-.76-1.72-1.8-4.65,1.64-2.57,2.88,1.75,4.44,7.89,4.17,11Z"/><path class="cls-7" d="M105.23,213a67.7,67.7,0,0,0-5.1,4.79L77.91,264.17l16.54-21.35L112,206.49C109.78,208.66,107.53,210.84,105.23,213Z"/><path class="cls-7" d="M92.05,205.33c1.62-2.2,3.17-4.79,5-7.07l-38.9-19L21.24,183l64.67,29.83C88,210.37,90.16,207.92,92.05,205.33Z"/><path class="cls-6" d="M97.6,198.53c-2.06,2.59-3.74,5.63-5.73,8.05-1.78,2.17-3.57,4.33-5.39,6.47l29.4,13.55,10.67-13.94Z"/><path class="cls-8" d="M53.33,252.41l11.41-23.82L5,200l9.59-20L113,122l26.85,12.85-39.46,82.42,16.26,7.78-11,23.06-16.26-7.78-11.4,23.82ZM97.59,160l-1.52-.73L43.45,190.05l32.33,15.48Z"/><polygon class="cls-7" points="116.61 225.07 126.55 212.66 118.75 229.96 105.2 248.88 116.61 225.07"/><path class="cls-7" d="M112.8,205.8l38.79-85-11.78,14.11-39.46,82.42C101.45,216.23,112.17,206.43,112.8,205.8Z"/><polygon class="cls-19" points="14.59 179.95 32.12 164.69 128.24 109.53 112.97 122.02 14.59 179.95"/><polygon class="cls-9" points="112.97 122.02 139.81 134.87 151.59 120.76 128.24 109.53 112.97 122.02"/><path class="cls-3" d="M80,184.13c-3.3-2.35-5.57-1.32-7.16-1.07a4.37,4.37,0,0,1-3-.69A1.54,1.54,0,1,0,68.16,185a14,14,0,0,0,3.76,1.51c-2.56,2.34-5.17,5.16-5.32,5.31a1.55,1.55,0,0,0,1.13,2.59,1.52,1.52,0,0,0,1.13-.5s1.85-2,3.88-4c-1.88,2.36-3.65,4.82-4,5.27a1.54,1.54,0,0,0,2.5,1.79c1-1.4,2.43-3.31,3.78-5-.5,1-1.14,2.13-2.43,4.19a1.55,1.55,0,0,0,.5,2.12,1.5,1.5,0,0,0,.81.24,1.53,1.53,0,0,0,1.31-.73c.53-.85,1-1.55,1.31-2.16A1.54,1.54,0,0,0,78,197.74a1.55,1.55,0,0,0,1.29-.7,16.37,16.37,0,0,0,2.44-5.46l.07,0C82.63,187.3,81.59,185.25,80,184.13ZM76.94,195c.51-.89.85-1.57,1.18-2.24A17.17,17.17,0,0,1,76.94,195Z"/><path class="cls-10" d="M32.87,201.59c-4.88-.27-11.95,9.27-4.71,11.86C21.6,213.3,20,222.56,26,225.12c-10.52-2.05-9.3,11.58-4.32,16.51a5.67,5.67,0,0,0-6.27,6.19c.51,3.53,1.91,8.43,10.65,11.05S40.15,256.58,44.5,252c2.79,5.69,16.55-2,15-8.8,5.19,1.84,9.85-4.06,9.95-8.76s-3.12-8.11-6.18-11.09c2.16-2,2.57-5.64,2-8.43-.94-4.65-6.76-5.11-6.76-8.81,0-1.29.25-5.31-.86-7.08-1.75-2.81-4.81-5.59-8.65-4.22C32.87,187.1,32.87,201.59,32.87,201.59Z"/><path class="cls-2" d="M42.28,351.07c-4.44-.78-5.15-.55-9.54-1.63L22.58,361.86H62L39.1,355.7Z"/><path class="cls-2" d="M115.67,354.63l-2.33-3.06a31.1,31.1,0,0,1-6.67,3.35l6.23,6.94H136Z"/><path class="cls-2" d="M28.56,351.11c4.42,1.08,8.83,2.21,13.3,3l32.55-40-5.54-15.91L46.08,271.85l6.56,37.24Z"/><path class="cls-10" d="M72.83,260.82c-8.93-2.37-21,.63-29.73,3.91,0,0,5.33,21.21,8.83,27.54,10.19,18.43,54.25,64.42,54.25,64.42,2.42-.83,7.09-4.24,9.22-5.62Z"/><path class="cls-14" d="M41.92,273c8.63-3.24,25.92-8.7,34.8-6.48,0,0-11.76-27.61-17.09-33.7-3.6-4.11-23.26-15.68-23.26-.56C36.37,253,41.92,273,41.92,273Z"/><path class="cls-3" d="M49.59,231l-.35.11a4.93,4.93,0,0,1-6-3.47,29.62,29.62,0,0,1-.78-6.56,4.93,4.93,0,0,1,9.85-.05,20.5,20.5,0,0,0,.44,4A4.92,4.92,0,0,1,49.59,231Z"/><path class="cls-12" d="M52.87,226.13a4.32,4.32,0,0,0-.16-1.06,20.5,20.5,0,0,1-.44-4,4.93,4.93,0,0,0-9.85.05c0,.06,0,.21,0,.42C44.86,224.24,48.86,225.53,52.87,226.13Z"/><path class="cls-3" d="M57.69,211.36a9.32,9.32,0,0,1-6,11.74h0a9.32,9.32,0,0,1-11.74-6L38,211a9.31,9.31,0,0,1,6-11.74h0a9.31,9.31,0,0,1,11.73,6Z"/><path class="cls-3" d="M112.55,206.42a1.42,1.42,0,0,0-.65-.32c.22-.24.46-.51.75-.81a1.56,1.56,0,0,0-.09-2.18,1.44,1.44,0,0,0-.25-.18,1.53,1.53,0,0,0-1.78-2.32c.7-.71,1.14-1.2,1.19-1.26a1.54,1.54,0,0,0-2.31-2,32.7,32.7,0,0,1-6.83,5.77A8.21,8.21,0,0,0,99,200a1.54,1.54,0,0,0-1.1,2.87,5.32,5.32,0,0,1,2.16,1.94,6.75,6.75,0,0,0-.36,1.42C77,236.9,47,226,45.61,225.5a5.23,5.23,0,0,0-3.77,9.76,54.58,54.58,0,0,0,18.21,2.94,58.06,58.06,0,0,0,6.68-.38c11.31-1.31,28-7.83,41.4-25.06a8.55,8.55,0,0,0,.94-.61,8.42,8.42,0,0,0,.84-.61l0,0a22.81,22.81,0,0,0,2.87-2.92A1.53,1.53,0,0,0,112.55,206.42Z"/><path class="cls-4" d="M70.85,225.58l-1.28.27a45.52,45.52,0,0,1-9.57,1,42.25,42.25,0,0,1-14.06-2.23A6.15,6.15,0,0,0,38,228.16a5.54,5.54,0,0,0,.11,4.71c3,5.33,11.26,7.49,21.95,7.49a58.76,58.76,0,0,0,6.78-.39c1.37-.16,2.8-.39,4.25-.7L72,239a36.83,36.83,0,0,1-1.55-7.84A46,46,0,0,1,70.85,225.58Z"/><path class="cls-10" d="M37.77,215.91c3.23-2,4.35-5.9,4-9.75,2.84,1.9,5.08.74,6.85-2.53C54,211.15,62.17,200,51,195.9c-8.93-3.25-17.69,5.59-15.4,14.47Z"/></g></svg>